<svg width="614" height="521" viewBox="0 0 614 521" fill="none" xmlns="http://www.w3.org/2000/svg">
<path d="M613.013 226.362C613.013 244.843 609.365 263.206 601.949 280.746C594.534 298.285 583.587 314.883 568.756 329.597L561.34 337.013L389.607 497.691C357.709 527.59 308.037 527.59 276.139 497.691L104.405 337.013C100.756 333.363 96.9898 329.597 94.2826 326.889C91.5753 324.182 89.692 322.298 89.692 322.298C60.2655 292.87 52.85 263.324 52.85 226.48C52.85 152.792 111.821 86.4014 192.92 86.4014C194.804 86.4014 196.687 86.4014 198.57 86.5191C218.58 87.4608 237.766 92.8757 255.187 101.822C278.257 113.593 298.15 131.368 312.51 152.321C314.393 155.146 316.276 157.971 317.924 160.796C324.398 171.743 340.406 171.743 346.409 160.561C352.765 148.907 360.652 138.313 369.715 129.014C385.488 113.005 404.909 100.998 426.449 93.8174C441.162 88.8734 456.817 86.2837 472.825 86.2837C476.474 86.2837 480.006 86.4014 483.654 86.7546C552.983 92.1694 613.013 149.26 613.013 226.362Z" fill="#FFC400"/>
<path d="M483.772 86.7545C480.123 86.4014 476.592 86.2837 472.943 86.2837C456.817 86.2837 441.162 88.8734 426.567 93.8173C423.742 80.1626 411.147 68.0382 398.553 68.0382C384.193 68.0382 369.833 83.8117 369.833 99.4676V128.896C360.652 138.195 352.765 148.789 346.527 160.443C340.524 171.626 324.516 171.626 318.042 160.678C316.276 157.853 314.511 154.91 312.627 152.203V99.5853C312.627 83.9294 298.267 68.1559 284.025 68.1559C269.665 68.1559 255.305 83.9294 255.305 99.5853V330.068H197.982V99.5853C197.982 95.1122 198.217 90.7568 198.688 86.5191C204.573 35.6671 244.593 0 288.733 0C307.801 0 331.696 10.4765 346.056 26.25C360.298 10.4765 379.367 0 403.261 0C447.048 0 478.828 39.787 483.772 86.7545Z" fill="#777CD9"/>
<path d="M338.641 485.213C335.933 489.216 330.048 489.216 327.223 485.213L298.15 442.484C296.266 439.658 298.267 435.774 301.681 435.774H309.567C312.039 435.774 313.922 433.773 313.922 431.419V376.682C313.922 374.21 315.923 372.327 318.277 372.327H347.704C350.058 372.327 351.941 374.21 351.941 376.564V431.419C351.941 433.891 353.942 435.774 356.296 435.774H364.183C367.596 435.774 369.597 439.658 367.714 442.484L338.641 485.213Z" fill="white"/>
<path d="M98.0492 357.966L101.816 353.022C104.641 349.255 110.644 351.844 109.938 356.435L108.996 362.203C108.525 365.264 111.115 367.853 114.175 367.383L119.943 366.441C124.651 365.735 127.123 371.738 123.356 374.563L118.412 378.33C116.058 380.096 116.058 383.745 118.412 385.51L123.356 389.277C127.123 392.102 124.533 398.106 119.943 397.399L114.175 396.458C111.115 395.987 108.525 398.577 108.996 401.637L109.938 407.405C110.644 412.114 104.641 414.586 101.816 410.819L98.0492 405.875C96.2836 403.52 92.6347 403.52 90.8691 405.875L87.1025 410.819C84.2776 414.586 78.2746 411.996 78.9808 407.405L79.9225 401.637C80.3933 398.577 77.8038 395.987 74.7434 396.458L68.9758 397.399C64.2675 398.106 61.7957 392.102 65.5623 389.277L70.506 385.51C72.8601 383.745 72.8601 380.096 70.506 378.33L65.5623 374.563C61.7957 371.738 64.3853 365.735 68.9758 366.441L74.7434 367.383C77.8038 367.853 80.3933 365.264 79.9225 362.203L78.9808 356.435C78.2746 351.727 84.2776 349.255 87.1025 353.022L90.8691 357.966C92.6347 360.32 96.2836 360.32 98.0492 357.966Z" fill="#F25C5C"/>
<path d="M167.378 389.513L173.381 381.744C177.972 375.74 187.506 379.86 186.329 387.276L184.916 396.458C184.21 401.284 188.33 405.522 193.156 404.698L202.337 403.285C209.752 402.108 213.872 411.643 207.869 416.234L200.1 422.237C196.334 425.18 196.334 430.83 200.1 433.773L207.869 439.776C213.872 444.367 209.752 453.902 202.337 452.725L193.156 451.312C188.33 450.606 184.092 454.726 184.916 459.552L186.329 468.734C187.506 476.15 177.972 480.27 173.381 474.266L167.378 466.497C164.435 462.73 158.786 462.73 155.843 466.497L149.84 474.266C145.249 480.27 135.715 476.15 136.892 468.734L138.305 459.552C139.011 454.726 134.891 450.488 130.065 451.312L120.884 452.725C113.469 453.902 109.349 444.367 115.352 439.776L123.121 433.773C126.887 430.83 126.887 425.18 123.121 422.237L115.352 416.234C109.349 411.643 113.469 402.108 120.884 403.285L130.065 404.698C134.891 405.404 139.129 401.284 138.305 396.458L136.892 387.276C135.715 379.86 145.249 375.74 149.84 381.744L155.843 389.513C158.786 393.397 164.435 393.397 167.378 389.513Z" fill="#F25C5C"/>
<path d="M429.039 269.681C417.504 269.681 408.793 275.449 400.083 281.217C394.316 258.027 371.127 240.606 347.939 240.606C316.041 240.606 292.853 266.62 292.853 295.695C292.853 327.596 318.866 350.785 347.939 350.785H429.039C452.227 350.785 469.647 333.364 469.647 310.174C469.647 286.985 452.109 269.681 429.039 269.681Z" fill="#F25C5C"/>
<path d="M411.501 351.727C411.501 358.789 411.501 364.087 410.441 369.384H31.3098C14.2424 369.384 0 355.611 0 338.543C0 338.425 0 338.307 0 338.19C0 284.159 40.4909 243.784 94.4003 243.784C134.891 243.784 168.673 270.74 182.091 311.233C195.628 304.524 209.046 297.696 222.582 297.696C242.828 297.696 256.364 304.406 269.782 317.943C283.319 297.696 310.273 277.45 337.228 277.45C377.837 277.567 411.501 311.233 411.501 351.727Z" fill="#24D7FF"/>
<path d="M173.617 356.671V356.553C173.617 349.137 179.62 343.134 187.035 343.134H464.115C477.181 343.134 488.127 353.61 488.127 366.676C488.127 366.794 488.127 366.794 488.127 366.912C488.127 408.111 457.171 439.07 415.973 439.07C385.017 439.07 359.239 418.47 348.999 387.512C338.64 392.691 328.4 397.87 318.042 397.87C302.622 397.87 292.264 392.691 281.906 382.45C271.548 397.87 250.949 413.408 230.351 413.408C199.394 413.408 173.617 387.629 173.617 356.671Z" fill="#13C0D4"/>
<path d="M262.72 418.706C264.015 416.822 266.84 416.822 268.135 418.706L281.906 438.834C282.848 440.129 281.906 442.013 280.258 442.013H276.609C275.432 442.013 274.491 442.954 274.491 444.132V508.874C274.491 510.051 273.549 510.993 272.372 510.993H258.483C257.423 510.993 256.482 510.051 256.482 508.991V444.249C256.482 443.072 255.54 442.13 254.363 442.13H250.714C249.066 442.13 248.124 440.365 249.066 438.952L262.72 418.706Z" fill="white"/>
<path d="M582.41 256.968L571.463 241.783C570.757 240.841 569.462 240.841 568.756 241.783L557.809 256.968C556.985 258.027 557.809 259.557 559.104 259.557H580.88C582.41 259.557 583.234 258.027 582.41 256.968Z" fill="white"/>
<path d="M582.41 221.772L571.463 206.587C570.757 205.645 569.462 205.645 568.756 206.587L557.809 221.772C556.985 222.831 557.809 224.361 559.104 224.361H580.88C582.41 224.361 583.234 222.831 582.41 221.772Z" fill="white"/>
<path d="M582.41 186.575L571.463 171.39C570.757 170.449 569.462 170.449 568.756 171.39L557.809 186.575C556.985 187.635 557.809 189.165 559.104 189.165H580.88C582.41 189.165 583.234 187.635 582.41 186.575Z" fill="white"/>
<path d="M585.353 398.694C582.645 398.694 581.351 397.399 579.938 395.987C578.643 394.692 575.936 391.985 571.816 391.985C567.814 391.985 565.107 394.692 563.695 395.987C562.4 397.282 560.987 398.694 558.28 398.694C555.573 398.694 554.278 397.399 552.866 395.987C551.571 394.692 548.864 391.985 544.744 391.985C540.742 391.985 538.035 394.692 536.622 395.987C535.327 397.282 533.915 398.694 531.208 398.694C528.5 398.694 527.206 397.399 525.793 395.987C524.498 394.692 521.791 391.985 517.672 391.985V395.987C520.379 395.987 521.674 397.282 523.086 398.694C524.381 399.989 527.088 402.697 531.208 402.697C535.21 402.697 537.917 399.989 539.329 398.694C540.624 397.399 542.037 395.987 544.744 395.987C547.451 395.987 548.746 397.282 550.158 398.694C551.453 399.989 554.16 402.697 558.28 402.697C562.282 402.697 564.989 399.989 566.402 398.694C567.697 397.399 569.109 395.987 571.816 395.987C574.524 395.987 575.818 397.282 577.231 398.694C578.526 399.989 581.233 402.697 585.353 402.697C589.355 402.697 592.062 399.989 593.474 398.694C594.769 397.399 596.181 395.987 598.889 395.987V391.985C594.887 391.985 592.179 394.692 590.767 395.987C589.472 397.399 588.06 398.694 585.353 398.694ZM585.353 382.45C582.645 382.45 581.351 381.155 579.938 379.742C578.643 378.448 575.936 375.74 571.816 375.74C567.814 375.74 565.107 378.448 563.695 379.742C562.4 381.037 560.987 382.45 558.28 382.45C555.573 382.45 554.278 381.155 552.866 379.742C551.571 378.448 548.864 375.74 544.744 375.74C540.742 375.74 538.035 378.448 536.622 379.742C535.327 381.037 533.915 382.45 531.208 382.45C528.5 382.45 527.206 381.155 525.793 379.742C524.498 378.448 521.791 375.74 517.672 375.74V379.742C520.379 379.742 521.674 381.037 523.086 382.45C524.381 383.745 527.088 386.452 531.208 386.452C535.21 386.452 537.917 383.745 539.329 382.45C540.624 381.155 542.037 379.742 544.744 379.742C547.451 379.742 548.746 381.037 550.158 382.45C551.453 383.745 554.16 386.452 558.28 386.452C562.282 386.452 564.989 383.745 566.402 382.45C567.697 381.155 569.109 379.742 571.816 379.742C574.524 379.742 575.818 381.037 577.231 382.45C578.526 383.745 581.233 386.452 585.353 386.452C589.355 386.452 592.062 383.745 593.474 382.45C594.769 381.155 596.181 379.742 598.889 379.742V375.74C594.887 375.74 592.179 378.448 590.767 379.742C589.472 381.155 588.06 382.45 585.353 382.45ZM585.353 364.911C582.645 364.911 581.351 363.616 579.938 362.203C578.643 360.908 575.936 358.201 571.816 358.201C567.814 358.201 565.107 360.908 563.695 362.203C562.282 363.498 560.987 364.911 558.28 364.911C555.573 364.911 554.278 363.616 552.866 362.203C551.571 360.908 548.864 358.201 544.744 358.201C540.742 358.201 538.035 360.908 536.622 362.203C535.327 363.498 533.915 364.911 531.208 364.911C528.5 364.911 527.206 363.616 525.793 362.203C524.498 360.908 521.791 358.201 517.672 358.201V362.203C520.379 362.203 521.674 363.498 523.086 364.911C524.381 366.205 527.088 368.913 531.208 368.913C535.21 368.913 537.917 366.205 539.329 364.911C540.742 363.616 542.037 362.203 544.744 362.203C547.451 362.203 548.746 363.498 550.158 364.911C551.453 366.205 554.16 368.913 558.28 368.913C562.282 368.913 564.989 366.205 566.402 364.911C567.814 363.616 569.109 362.203 571.816 362.203C574.524 362.203 575.818 363.498 577.231 364.911C578.526 366.205 581.233 368.913 585.353 368.913C589.355 368.913 592.062 366.205 593.474 364.911C594.887 363.616 596.181 362.203 598.889 362.203V358.201C594.887 358.201 592.179 360.908 590.767 362.203C589.472 363.616 588.06 364.911 585.353 364.911ZM585.353 348.666C582.645 348.666 581.351 347.371 579.938 345.959C578.643 344.664 575.936 341.957 571.816 341.957C567.814 341.957 565.107 344.664 563.695 345.959C562.282 347.254 560.987 348.666 558.28 348.666C555.573 348.666 554.278 347.371 552.866 345.959C551.571 344.664 548.864 341.957 544.744 341.957C540.742 341.957 538.035 344.664 536.622 345.959C535.327 347.254 533.915 348.666 531.208 348.666C528.5 348.666 527.206 347.371 525.793 345.959C524.498 344.664 521.791 341.957 517.672 341.957V345.959C520.379 345.959 521.674 347.254 523.086 348.666C524.381 349.961 527.088 352.668 531.208 352.668C535.327 352.668 537.917 349.961 539.329 348.666C540.624 347.371 542.037 345.959 544.744 345.959C547.451 345.959 548.746 347.254 550.158 348.666C551.453 349.961 554.16 352.668 558.28 352.668C562.282 352.668 564.989 349.961 566.402 348.666C567.697 347.371 569.109 345.959 571.816 345.959C574.524 345.959 575.818 347.254 577.231 348.666C578.526 349.961 581.233 352.668 585.353 352.668C589.355 352.668 592.062 349.961 593.474 348.666C594.769 347.371 596.181 345.959 598.889 345.959V341.957C594.887 341.957 592.179 344.664 590.767 345.959C589.355 347.254 588.06 348.666 585.353 348.666ZM590.767 329.714C589.472 331.009 588.06 332.422 585.353 332.422C582.645 332.422 581.351 331.127 579.938 329.714C578.643 328.42 575.936 325.712 571.816 325.712C567.814 325.712 565.107 328.42 563.695 329.714C562.282 331.009 560.987 332.422 558.28 332.422C555.573 332.422 554.278 331.127 552.866 329.714C551.571 328.42 548.864 325.712 544.744 325.712C540.742 325.712 538.035 328.42 536.622 329.714C535.21 331.009 533.915 332.422 531.208 332.422C528.5 332.422 527.206 331.127 525.793 329.714C524.498 328.42 521.791 325.712 517.672 325.712V329.714C520.379 329.714 521.674 331.009 523.086 332.422C524.381 333.717 527.088 336.424 531.208 336.424C535.21 336.424 537.917 333.717 539.329 332.422C540.624 331.127 542.037 329.714 544.744 329.714C547.451 329.714 548.746 331.009 550.158 332.422C551.453 333.717 554.16 336.424 558.28 336.424C562.282 336.424 564.989 333.717 566.402 332.422C567.697 331.127 569.109 329.714 571.816 329.714C574.524 329.714 575.818 331.009 577.231 332.422C578.526 333.717 581.233 336.424 585.353 336.424C589.355 336.424 592.062 333.717 593.474 332.422C594.769 331.127 596.181 329.714 598.889 329.714V325.712C594.887 325.712 593.474 327.007 590.767 329.714Z" fill="#777CD9"/>
<path d="M121.944 309.468C116.647 309.468 112.645 312.175 111.35 317.472H67.4456C66.1508 313.47 60.854 309.468 56.852 309.468C50.2605 309.468 44.846 314.765 44.846 321.475C44.846 328.066 50.1428 333.481 56.852 333.481C62.1488 333.481 66.1508 330.774 67.4456 325.477H111.35C112.645 329.479 117.941 333.481 121.944 333.481C128.535 333.481 133.95 328.184 133.95 321.475C133.95 314.765 128.653 309.468 121.944 309.468ZM55.4396 325.477C52.7323 325.477 51.4375 322.769 51.4375 321.475C51.4375 318.767 54.1448 317.472 55.4396 317.472C56.7343 317.472 59.4416 320.18 59.4416 321.475C59.4416 324.064 58.1468 325.477 55.4396 325.477ZM121.944 325.477C119.236 325.477 117.941 322.769 117.941 321.475C117.941 318.767 120.649 317.472 121.944 317.472C124.651 317.472 125.946 320.18 125.946 321.475C125.946 324.064 124.651 325.477 121.944 325.477Z" fill="#777CD9"/>
<path d="M345.467 201.054C322.162 201.054 299.327 178.571 298.385 177.629C298.267 177.511 285.79 165.152 270.253 158.677C264.25 156.205 258.483 154.91 253.304 154.793C253.186 154.793 253.068 154.793 252.95 154.793C230.586 154.793 207.751 177.394 207.516 177.511C206.574 178.453 183.739 200.936 160.433 200.936C137.128 200.936 114.293 178.453 113.351 177.511C113.116 177.276 90.2806 154.793 67.9164 154.793C45.5522 154.793 22.7173 177.394 22.4818 177.511L21.6579 178.335L20.01 176.687L20.834 175.863C21.7756 174.922 44.6106 152.439 67.9164 152.439C91.2222 152.439 114.057 174.922 114.999 175.863C115.234 176.099 138.069 198.582 160.433 198.582C182.798 198.582 205.633 175.981 205.868 175.863C206.81 174.922 229.645 152.439 252.95 152.439C253.068 152.439 253.186 152.439 253.304 152.439C258.836 152.439 264.839 153.851 271.077 156.441C286.968 163.033 299.444 175.393 299.915 175.863C300.151 176.099 322.986 198.582 345.35 198.582C367.714 198.582 390.549 175.981 390.784 175.863L391.608 175.039L393.256 176.687L392.432 177.511C391.608 178.453 368.773 201.054 345.467 201.054Z" fill="#13C0D4"/>
<path d="M160.433 228.246C137.128 228.246 114.293 205.763 113.351 204.821C113.116 204.585 90.2806 182.102 67.9164 182.102H66.7394V179.748H67.9164C91.2222 179.748 114.057 202.231 114.999 203.173C115.234 203.408 138.069 225.891 160.433 225.891C182.798 225.891 205.633 203.291 205.868 203.173C206.81 202.231 229.645 179.748 252.95 179.748C253.068 179.748 253.186 179.748 253.304 179.748C258.836 179.748 264.839 181.16 271.077 183.75C286.968 190.342 299.444 202.702 299.915 203.173L300.739 203.997L299.091 205.645L298.267 204.821C298.15 204.703 285.673 192.343 270.136 185.869C264.133 183.397 258.365 182.102 253.186 181.984C253.068 181.984 252.95 181.984 252.833 181.984C230.469 181.984 207.634 204.585 207.398 204.703C206.574 205.763 183.857 228.246 160.433 228.246Z" fill="#13C0D4"/>
<path d="M488.127 205.645C507.667 205.645 524.734 189.754 524.734 169.036V159.266V156.794V155.617C524.734 136.076 508.844 120.185 488.127 120.185C468.588 120.185 452.698 136.076 451.521 155.617V156.794V159.266V169.036C451.521 189.871 468.588 205.645 488.127 205.645ZM462.467 167.859H514.964V170.331C514.964 184.927 502.723 195.992 489.304 195.992C474.709 195.992 463.644 183.75 463.644 170.331L462.467 167.859Z" fill="#13C0D4"/>
<path d="M508.255 234.131C511.245 234.131 513.669 231.707 513.669 228.717C513.669 225.726 511.245 223.302 508.255 223.302C505.265 223.302 502.84 225.726 502.84 228.717C502.84 231.707 505.265 234.131 508.255 234.131Z" fill="#F25C5C"/>
<path d="M513.669 253.436C513.669 256.379 511.198 258.851 508.255 258.851C505.312 258.851 502.84 256.379 502.84 253.436C502.84 250.494 505.312 248.022 508.255 248.022C511.198 248.022 513.669 250.494 513.669 253.436Z" fill="#F25C5C"/>
<path d="M508.255 283.571C511.245 283.571 513.669 281.147 513.669 278.156C513.669 275.166 511.245 272.741 508.255 272.741C505.265 272.741 502.84 275.166 502.84 278.156C502.84 281.147 505.265 283.571 508.255 283.571Z" fill="#F25C5C"/>
</svg>
