<svg width="650" height="433" viewBox="0 0 650 433" fill="none" xmlns="http://www.w3.org/2000/svg">
<path d="M640.103 112.843C640.103 120.638 639.36 128.308 637.752 135.607C637.628 136.473 637.381 137.339 637.257 138.081C635.525 145.752 632.927 153.051 629.711 160.103C628.721 162.33 627.607 164.556 626.37 166.66C625.504 168.144 624.638 169.629 623.772 171.113C622.288 173.588 620.679 175.938 619.071 178.289C598.658 206.743 565.255 225.301 527.522 225.301C465.293 225.301 414.941 174.949 414.941 112.72C414.941 50.491 465.417 0.138885 527.522 0.138885C588.019 0.138885 637.381 47.893 639.979 107.647C639.979 108.513 640.103 109.256 640.103 110.122C640.103 111.111 640.103 111.977 640.103 112.843Z" fill="#F25C5C"/>
<path d="M207.099 261.549C207.099 273.797 219.347 286.169 231.719 286.169H625.381C637.628 286.169 650 273.921 650 261.549C650 249.301 637.752 236.93 625.381 236.93H338.361C326.113 236.93 313.742 224.682 313.742 212.311C313.742 200.063 325.99 187.691 338.361 187.691H497.954C510.202 187.691 522.573 175.443 522.573 163.072C522.573 150.824 510.325 138.453 497.954 138.453H399.848C387.6 138.453 375.228 126.205 375.228 113.833C375.228 101.585 387.476 89.2139 399.848 89.2139H526.903C539.151 89.2139 551.523 76.9661 551.523 64.5945C551.523 52.3467 539.275 39.9752 526.903 39.9752H305.453C293.205 39.9752 280.834 52.223 280.834 64.5945C280.834 76.8423 293.081 89.2139 305.453 89.2139C317.701 89.2139 330.072 101.462 330.072 113.833C330.072 126.081 317.824 138.453 305.453 138.453H239.884C227.636 138.453 215.265 150.7 215.265 163.072C215.265 175.32 227.512 187.691 239.884 187.691H248.049C260.297 187.691 272.668 199.939 272.668 212.311C272.668 224.558 260.421 236.93 248.049 236.93H235.801C219.471 236.93 211.182 245.219 207.099 261.549Z" fill="#24D7FF"/>
<path d="M208.213 323.036L111.591 391.574C103.55 397.265 92.7864 389.718 95.5082 380.192L127.674 267.364C128.788 263.281 127.427 258.951 124.086 256.229L30.5577 182.99C22.8873 176.928 26.8462 164.68 36.6197 164.309L154.397 160.226C158.603 160.103 162.314 157.381 163.799 153.422L204.501 43.5629C207.842 34.5317 220.708 34.5317 224.048 43.5629L264.751 153.422C266.235 157.381 269.947 160.103 274.153 160.226L391.93 164.309C401.703 164.68 405.662 176.928 397.992 182.99L304.463 256.229C301.123 258.828 299.638 263.281 300.876 267.364L319.928 327.242C322.649 336.768 304.216 351.614 296.174 345.923L220.461 323.036C216.625 320.438 211.801 320.438 208.213 323.036Z" fill="#FFC400"/>
<path d="M142.891 279.859C131.633 296.808 125.942 313.757 125.942 330.706C125.942 387.244 171.098 432.4 227.636 432.4C272.792 432.4 306.69 404.193 323.639 370.295C340.588 387.244 363.228 398.502 391.435 398.502C436.591 398.502 476.18 358.913 476.18 313.757C476.18 302.499 476.18 291.117 470.489 279.859H142.891Z" fill="#13C0D4"/>
<path d="M333.289 327.613C344.547 310.664 350.238 293.715 350.238 276.766C350.238 220.228 305.082 175.072 248.544 175.072C203.388 175.072 169.49 203.279 152.541 237.177C135.592 220.228 112.952 208.97 84.7449 208.97C39.5889 208.97 0 248.559 0 293.715C0 304.973 -1.76976e-06 316.355 5.6909 327.613H333.289Z" fill="#F25C5C"/>
<path d="M640.103 112.843C640.103 120.638 639.36 128.308 637.752 135.607C637.628 136.473 637.381 137.339 637.257 138.081H575.523C573.791 138.081 572.307 139.566 572.307 141.298V146.989C572.307 149.463 569.461 150.948 567.482 149.587L536.182 128.308C533.213 126.328 533.213 121.998 536.182 120.019L567.482 98.74C569.585 97.3791 572.307 98.8637 572.307 101.338V107.153C572.307 108.885 573.791 110.369 575.523 110.369H640.103C640.103 111.111 640.103 111.977 640.103 112.843Z" fill="white"/>
<path d="M629.711 160.103C628.721 162.33 627.607 164.556 626.37 166.66C625.504 168.144 624.638 169.629 623.772 171.113H608.803C608.06 171.113 607.566 171.732 607.566 172.351V174.577C607.566 175.567 606.452 176.186 605.586 175.567L593.215 167.155C592.101 166.412 592.101 164.68 593.215 163.814L605.586 155.402C606.452 154.907 607.566 155.402 607.566 156.391V158.618C607.566 159.36 608.184 159.855 608.803 159.855H629.711V160.103Z" fill="white"/>
<path d="M373.125 323.531L389.084 312.025C390.074 311.283 390.074 309.922 389.084 309.18L373.125 297.674C372.012 296.808 370.403 297.674 370.403 299.035V321.922C370.403 323.531 372.012 324.397 373.125 323.531Z" fill="white"/>
<path d="M410.24 323.531L426.199 312.025C427.189 311.283 427.189 309.922 426.199 309.18L410.24 297.674C409.126 296.808 407.518 297.674 407.518 299.035V321.922C407.394 323.531 409.003 324.397 410.24 323.531Z" fill="white"/>
<path d="M447.231 323.531L463.19 312.025C464.18 311.283 464.18 309.922 463.19 309.18L447.231 297.674C446.117 296.808 444.509 297.674 444.509 299.035V321.922C444.385 323.531 445.994 324.397 447.231 323.531Z" fill="white"/>
<path d="M347.392 57.9139L338.361 64.3471C337.866 64.7183 337.866 65.5843 338.361 65.9554L347.392 72.3886C348.011 72.8835 349.001 72.3886 349.001 71.6463V58.6562C348.877 57.9139 348.011 57.4191 347.392 57.9139Z" fill="white"/>
<path d="M326.361 57.9139L317.33 64.3471C316.835 64.7183 316.835 65.5843 317.33 65.9554L326.361 72.3886C326.979 72.8835 327.969 72.3886 327.969 71.6463V58.6562C327.969 57.9139 326.979 57.4191 326.361 57.9139Z" fill="white"/>
<path d="M305.453 57.9139L296.422 64.3471C295.927 64.7183 295.927 65.5843 296.422 65.9554L305.453 72.3886C306.072 72.8835 307.061 72.3886 307.061 71.6463V58.6562C307.061 57.9139 306.072 57.4191 305.453 57.9139Z" fill="white"/>
<path d="M189.532 312.52L192.872 308.066C195.47 304.602 200.914 306.953 200.295 311.159L199.429 316.355C199.058 319.077 201.408 321.551 204.13 321.056L209.326 320.19C213.533 319.572 215.883 325.015 212.419 327.613L207.965 330.953C205.738 332.562 205.738 335.902 207.965 337.51L212.419 340.851C215.883 343.449 213.533 348.892 209.326 348.274L204.13 347.408C201.408 347.036 198.934 349.387 199.429 352.109L200.295 357.305C200.914 361.511 195.47 363.862 192.872 360.398L189.532 355.944C187.923 353.717 184.583 353.717 182.975 355.944L179.635 360.398C177.037 363.862 171.593 361.511 172.212 357.305L173.078 352.109C173.449 349.387 171.098 346.913 168.376 347.408L163.18 348.274C158.974 348.892 156.624 343.449 160.088 340.851L164.541 337.51C166.768 335.902 166.768 332.562 164.541 330.953L160.088 327.613C156.624 325.015 158.974 319.572 163.18 320.19L168.376 321.056C171.098 321.427 173.572 319.077 173.078 316.355L172.212 311.159C171.593 306.953 177.037 304.602 179.635 308.066L182.975 312.52C184.583 314.747 187.8 314.747 189.532 312.52Z" fill="#F25C5C"/>
<path d="M252.627 341.346L258.07 334.17C262.276 328.727 270.936 332.438 269.823 339.242L268.586 347.655C267.967 352.109 271.679 355.82 276.132 355.202L284.545 353.965C291.349 352.975 295.061 361.635 289.617 365.717L282.442 371.161C278.978 373.759 278.978 379.079 282.442 381.677L289.617 387.12C295.061 391.327 291.349 399.987 284.545 398.873L276.132 397.636C271.679 397.017 267.967 400.729 268.586 405.183L269.823 413.595C270.813 420.4 262.153 424.111 258.07 418.668L252.627 411.492C250.029 408.028 244.709 408.028 242.111 411.492L236.667 418.668C232.461 424.111 223.801 420.4 224.914 413.595L226.151 405.183C226.77 400.729 223.059 397.017 218.605 397.636L210.192 398.873C203.388 399.863 199.676 391.203 205.12 387.12L212.295 381.677C215.759 379.079 215.759 373.759 212.295 371.161L205.12 365.717C199.676 361.511 203.388 352.851 210.192 353.965L218.605 355.202C223.059 355.82 226.77 352.109 226.151 347.655L224.914 339.242C223.925 332.438 232.585 328.727 236.667 334.17L242.111 341.346C244.832 344.81 250.029 344.81 252.627 341.346Z" fill="#F25C5C"/>
<path d="M260.263 380.242C264.808 378.359 266.966 373.148 265.084 368.603C263.201 364.058 257.99 361.9 253.445 363.782C248.9 365.665 246.742 370.876 248.624 375.421C250.507 379.966 255.718 382.124 260.263 380.242Z" fill="white"/>
<path d="M65.5691 259.075H67.1774C69.528 259.075 71.5074 261.054 71.5074 263.405C71.5074 265.756 69.528 267.735 67.1774 267.735H65.5691C63.2185 267.735 61.2391 265.756 61.2391 263.405C61.2391 261.054 63.0948 259.075 65.5691 259.075Z" fill="white"/>
<path d="M86.3533 259.075H87.9616C90.3121 259.075 92.2916 261.054 92.2916 263.405C92.2916 265.756 90.3121 267.735 87.9616 267.735H86.3533C84.0027 267.735 82.0232 265.756 82.0232 263.405C82.0232 261.054 84.0027 259.075 86.3533 259.075Z" fill="#13C0D4"/>
<path d="M148.953 259.075H150.561C152.912 259.075 154.891 261.054 154.891 263.405C154.891 265.756 152.912 267.735 150.561 267.735H148.953C146.603 267.735 144.623 265.756 144.623 263.405C144.623 261.054 146.479 259.075 148.953 259.075Z" fill="white"/>
<path d="M65.5691 275.529H67.1774C69.528 275.529 71.5074 277.509 71.5074 279.859C71.5074 282.21 69.528 284.189 67.1774 284.189H65.5691C63.2185 284.189 61.2391 282.21 61.2391 279.859C61.2391 277.509 63.0948 275.529 65.5691 275.529Z" fill="#13C0D4"/>
<path d="M86.3533 275.529H87.9616C90.3121 275.529 92.2916 277.509 92.2916 279.859C92.2916 282.21 90.3121 284.189 87.9616 284.189H86.3533C84.0027 284.189 82.0232 282.21 82.0232 279.859C82.0232 277.509 84.0027 275.529 86.3533 275.529Z" fill="white"/>
<path d="M128.045 275.529H129.654C132.004 275.529 133.984 277.509 133.984 279.859C133.984 282.21 132.004 284.189 129.654 284.189H128.045C125.695 284.189 123.715 282.21 123.715 279.859C123.715 277.509 125.695 275.529 128.045 275.529Z" fill="white"/>
<path d="M148.953 275.529H150.561C152.912 275.529 154.891 277.509 154.891 279.859C154.891 282.21 152.912 284.189 150.561 284.189H148.953C146.603 284.189 144.623 282.21 144.623 279.859C144.623 277.509 146.479 275.529 148.953 275.529Z" fill="#13C0D4"/>
<path d="M190.645 275.529H192.254C194.604 275.529 196.584 277.509 196.584 279.859C196.584 282.21 194.604 284.189 192.254 284.189H190.645C188.295 284.189 186.315 282.21 186.315 279.859C186.315 277.509 188.295 275.529 190.645 275.529Z" fill="white"/>
<path d="M44.6612 291.983H46.2695C48.6201 291.983 50.5995 293.963 50.5995 296.313C50.5995 298.664 48.6201 300.643 46.2695 300.643H44.6612C42.3106 300.643 40.3312 298.664 40.3312 296.313C40.3312 293.839 42.3106 291.983 44.6612 291.983Z" fill="white"/>
<path d="M107.261 291.983H108.869C111.22 291.983 113.199 293.963 113.199 296.313C113.199 298.664 111.22 300.643 108.869 300.643H107.261C104.911 300.643 102.931 298.664 102.931 296.313C102.931 293.839 104.787 291.983 107.261 291.983Z" fill="white"/>
<path d="M128.045 291.983H129.654C132.004 291.983 133.984 293.963 133.984 296.313C133.984 298.664 132.004 300.643 129.654 300.643H128.045C125.695 300.643 123.715 298.664 123.715 296.313C123.715 293.839 125.695 291.983 128.045 291.983Z" fill="#13C0D4"/>
<path d="M148.953 291.983H150.561C152.912 291.983 154.891 293.963 154.891 296.313C154.891 298.664 152.912 300.643 150.561 300.643H148.953C146.603 300.643 144.623 298.664 144.623 296.313C144.623 293.839 146.479 291.983 148.953 291.983Z" fill="white"/>
<path d="M190.645 291.983H192.254C194.604 291.983 196.584 293.963 196.584 296.313C196.584 298.664 194.604 300.643 192.254 300.643H190.645C188.295 300.643 186.315 298.664 186.315 296.313C186.315 293.839 188.295 291.983 190.645 291.983Z" fill="#13C0D4"/>
<path d="M433.251 153.67C434.549 153.67 435.601 152.617 435.601 151.319C435.601 150.021 434.549 148.968 433.251 148.968C431.953 148.968 430.9 150.021 430.9 151.319C430.9 152.617 431.953 153.67 433.251 153.67Z" fill="#777CD9"/>
<path d="M448.22 153.67C449.519 153.67 450.571 152.617 450.571 151.319C450.571 150.021 449.519 148.968 448.22 148.968C446.922 148.968 445.87 150.021 445.87 151.319C445.87 152.617 446.922 153.67 448.22 153.67Z" fill="#777CD9"/>
<path d="M463.066 153.67C464.364 153.67 465.417 152.617 465.417 151.319C465.417 150.021 464.364 148.968 463.066 148.968C461.768 148.968 460.716 150.021 460.716 151.319C460.716 152.617 461.768 153.67 463.066 153.67Z" fill="#777CD9"/>
<path d="M478.036 153.67C479.334 153.67 480.386 152.617 480.386 151.319C480.386 150.021 479.334 148.968 478.036 148.968C476.738 148.968 475.685 150.021 475.685 151.319C475.685 152.617 476.738 153.67 478.036 153.67Z" fill="#777CD9"/>
<path d="M492.882 153.67C494.18 153.67 495.232 152.617 495.232 151.319C495.232 150.021 494.18 148.968 492.882 148.968C491.583 148.968 490.531 150.021 490.531 151.319C490.531 152.617 491.583 153.67 492.882 153.67Z" fill="#777CD9"/>
<path d="M510.078 151.319C510.078 152.556 509.088 153.67 507.727 153.67C506.49 153.67 505.377 152.68 505.377 151.319C505.377 149.958 506.367 148.968 507.727 148.968C509.088 148.968 510.078 149.958 510.078 151.319Z" fill="#777CD9"/>
<path d="M522.697 153.67C523.995 153.67 525.048 152.617 525.048 151.319C525.048 150.021 523.995 148.968 522.697 148.968C521.399 148.968 520.346 150.021 520.346 151.319C520.346 152.617 521.399 153.67 522.697 153.67Z" fill="#777CD9"/>
<path d="M539.893 151.319C539.893 152.556 538.904 153.67 537.543 153.67C536.306 153.67 535.192 152.68 535.192 151.319C535.192 149.958 536.182 148.968 537.543 148.968C538.904 148.968 539.893 149.958 539.893 151.319Z" fill="#777CD9"/>
<path d="M442.653 163.69C442.653 164.928 441.663 166.041 440.303 166.041C439.065 166.041 437.952 165.051 437.952 163.69C437.952 162.453 438.942 161.34 440.303 161.34C441.663 161.34 442.653 162.33 442.653 163.69Z" fill="#777CD9"/>
<path d="M457.499 163.69C457.499 164.928 456.509 166.041 455.148 166.041C453.911 166.041 452.798 165.051 452.798 163.69C452.798 162.453 453.788 161.34 455.148 161.34C456.509 161.34 457.499 162.33 457.499 163.69Z" fill="#777CD9"/>
<path d="M472.469 163.69C472.469 164.928 471.479 166.041 470.118 166.041C468.881 166.041 467.767 165.051 467.767 163.69C467.767 162.453 468.757 161.34 470.118 161.34C471.479 161.34 472.469 162.33 472.469 163.69Z" fill="#777CD9"/>
<path d="M487.314 163.69C487.314 164.928 486.325 166.041 484.964 166.041C483.727 166.041 482.613 165.051 482.613 163.69C482.613 162.453 483.603 161.34 484.964 161.34C486.325 161.34 487.314 162.33 487.314 163.69Z" fill="#777CD9"/>
<path d="M502.284 163.69C502.284 164.928 501.294 166.041 499.933 166.041C498.696 166.041 497.583 165.051 497.583 163.69C497.583 162.453 498.573 161.34 499.933 161.34C501.294 161.34 502.284 162.33 502.284 163.69Z" fill="#777CD9"/>
<path d="M517.13 163.69C517.13 164.928 516.14 166.041 514.779 166.041C513.542 166.041 512.429 165.051 512.429 163.69C512.429 162.453 513.418 161.34 514.779 161.34C516.14 161.34 517.13 162.33 517.13 163.69Z" fill="#777CD9"/>
<path d="M532.099 163.69C532.099 164.928 531.11 166.041 529.749 166.041C528.512 166.041 527.398 165.051 527.398 163.69C527.398 162.453 528.388 161.34 529.749 161.34C531.11 161.34 532.099 162.33 532.099 163.69Z" fill="#777CD9"/>
<path d="M546.945 163.69C546.945 164.928 545.955 166.041 544.595 166.041C543.357 166.041 542.244 165.051 542.244 163.69C542.244 162.453 543.234 161.34 544.595 161.34C545.955 161.34 546.945 162.33 546.945 163.69Z" fill="#777CD9"/>
<path d="M433.251 178.413C434.549 178.413 435.601 177.36 435.601 176.062C435.601 174.764 434.549 173.711 433.251 173.711C431.953 173.711 430.9 174.764 430.9 176.062C430.9 177.36 431.953 178.413 433.251 178.413Z" fill="#777CD9"/>
<path d="M448.22 178.413C449.519 178.413 450.571 177.36 450.571 176.062C450.571 174.764 449.519 173.711 448.22 173.711C446.922 173.711 445.87 174.764 445.87 176.062C445.87 177.36 446.922 178.413 448.22 178.413Z" fill="#777CD9"/>
<path d="M463.066 178.413C464.364 178.413 465.417 177.36 465.417 176.062C465.417 174.764 464.364 173.711 463.066 173.711C461.768 173.711 460.716 174.764 460.716 176.062C460.716 177.36 461.768 178.413 463.066 178.413Z" fill="#777CD9"/>
<path d="M478.036 178.413C479.334 178.413 480.386 177.36 480.386 176.062C480.386 174.764 479.334 173.711 478.036 173.711C476.738 173.711 475.685 174.764 475.685 176.062C475.685 177.36 476.738 178.413 478.036 178.413Z" fill="#777CD9"/>
<path d="M492.882 178.413C494.18 178.413 495.232 177.36 495.232 176.062C495.232 174.764 494.18 173.711 492.882 173.711C491.583 173.711 490.531 174.764 490.531 176.062C490.531 177.36 491.583 178.413 492.882 178.413Z" fill="#777CD9"/>
<path d="M510.078 176.062C510.078 177.299 509.088 178.413 507.727 178.413C506.49 178.413 505.377 177.423 505.377 176.062C505.377 174.701 506.367 173.711 507.727 173.711C509.088 173.711 510.078 174.701 510.078 176.062Z" fill="#777CD9"/>
<path d="M522.697 178.413C523.995 178.413 525.048 177.36 525.048 176.062C525.048 174.764 523.995 173.711 522.697 173.711C521.399 173.711 520.346 174.764 520.346 176.062C520.346 177.36 521.399 178.413 522.697 178.413Z" fill="#777CD9"/>
<path d="M539.893 176.062C539.893 177.299 538.904 178.413 537.543 178.413C536.306 178.413 535.192 177.423 535.192 176.062C535.192 174.701 536.182 173.711 537.543 173.711C538.904 173.711 539.893 174.701 539.893 176.062Z" fill="#777CD9"/>
<path d="M442.653 188.434C442.653 189.671 441.663 190.784 440.303 190.784C439.065 190.784 437.952 189.794 437.952 188.434C437.952 187.073 438.942 186.083 440.303 186.083C441.663 186.083 442.653 187.073 442.653 188.434Z" fill="#777CD9"/>
<path d="M455.272 190.784C456.57 190.784 457.623 189.732 457.623 188.434C457.623 187.135 456.57 186.083 455.272 186.083C453.974 186.083 452.922 187.135 452.922 188.434C452.922 189.732 453.974 190.784 455.272 190.784Z" fill="#777CD9"/>
<path d="M472.469 188.434C472.469 189.671 471.479 190.784 470.118 190.784C468.881 190.784 467.767 189.794 467.767 188.434C467.767 187.073 468.757 186.083 470.118 186.083C471.479 186.083 472.469 187.073 472.469 188.434Z" fill="#777CD9"/>
<path d="M485.088 190.784C486.386 190.784 487.438 189.732 487.438 188.434C487.438 187.135 486.386 186.083 485.088 186.083C483.789 186.083 482.737 187.135 482.737 188.434C482.737 189.732 483.789 190.784 485.088 190.784Z" fill="#777CD9"/>
<path d="M499.933 190.784C501.232 190.784 502.284 189.732 502.284 188.434C502.284 187.135 501.232 186.083 499.933 186.083C498.635 186.083 497.583 187.135 497.583 188.434C497.583 189.732 498.635 190.784 499.933 190.784Z" fill="#777CD9"/>
<path d="M514.903 190.784C516.201 190.784 517.254 189.732 517.254 188.434C517.254 187.135 516.201 186.083 514.903 186.083C513.605 186.083 512.552 187.135 512.552 188.434C512.552 189.732 513.605 190.784 514.903 190.784Z" fill="#777CD9"/>
<path d="M529.749 190.784C531.047 190.784 532.099 189.732 532.099 188.434C532.099 187.135 531.047 186.083 529.749 186.083C528.451 186.083 527.398 187.135 527.398 188.434C527.398 189.732 528.451 190.784 529.749 190.784Z" fill="#777CD9"/>
<path d="M546.945 188.434C546.945 189.671 545.955 190.784 544.595 190.784C543.357 190.784 542.244 189.794 542.244 188.434C542.244 187.073 543.234 186.083 544.595 186.083C545.955 186.083 546.945 187.073 546.945 188.434Z" fill="#777CD9"/>
<path d="M433.251 203.156C434.549 203.156 435.601 202.103 435.601 200.805C435.601 199.507 434.549 198.454 433.251 198.454C431.953 198.454 430.9 199.507 430.9 200.805C430.9 202.103 431.953 203.156 433.251 203.156Z" fill="#777CD9"/>
<path d="M448.22 203.156C449.519 203.156 450.571 202.103 450.571 200.805C450.571 199.507 449.519 198.454 448.22 198.454C446.922 198.454 445.87 199.507 445.87 200.805C445.87 202.103 446.922 203.156 448.22 203.156Z" fill="#777CD9"/>
<path d="M463.066 203.156C464.364 203.156 465.417 202.103 465.417 200.805C465.417 199.507 464.364 198.454 463.066 198.454C461.768 198.454 460.716 199.507 460.716 200.805C460.716 202.103 461.768 203.156 463.066 203.156Z" fill="#777CD9"/>
<path d="M478.036 203.156C479.334 203.156 480.386 202.103 480.386 200.805C480.386 199.507 479.334 198.454 478.036 198.454C476.738 198.454 475.685 199.507 475.685 200.805C475.685 202.103 476.738 203.156 478.036 203.156Z" fill="#777CD9"/>
<path d="M492.882 203.156C494.18 203.156 495.232 202.103 495.232 200.805C495.232 199.507 494.18 198.454 492.882 198.454C491.583 198.454 490.531 199.507 490.531 200.805C490.531 202.103 491.583 203.156 492.882 203.156Z" fill="#777CD9"/>
<path d="M510.078 200.805C510.078 202.042 509.088 203.156 507.727 203.156C506.49 203.156 505.377 202.166 505.377 200.805C505.377 199.568 506.367 198.454 507.727 198.454C509.088 198.454 510.078 199.444 510.078 200.805Z" fill="#777CD9"/>
<path d="M522.697 203.156C523.995 203.156 525.048 202.103 525.048 200.805C525.048 199.507 523.995 198.454 522.697 198.454C521.399 198.454 520.346 199.507 520.346 200.805C520.346 202.103 521.399 203.156 522.697 203.156Z" fill="#777CD9"/>
<path d="M539.893 200.805C539.893 202.042 538.904 203.156 537.543 203.156C536.306 203.156 535.192 202.166 535.192 200.805C535.192 199.568 536.182 198.454 537.543 198.454C538.904 198.454 539.893 199.444 539.893 200.805Z" fill="#777CD9"/>
<path d="M442.653 213.177C442.653 214.414 441.663 215.527 440.303 215.527C439.065 215.527 437.952 214.537 437.952 213.177C437.952 211.939 438.942 210.826 440.303 210.826C441.663 210.826 442.653 211.816 442.653 213.177Z" fill="#777CD9"/>
<path d="M457.499 213.177C457.499 214.414 456.509 215.527 455.148 215.527C453.911 215.527 452.798 214.537 452.798 213.177C452.798 211.939 453.788 210.826 455.148 210.826C456.509 210.826 457.499 211.816 457.499 213.177Z" fill="#777CD9"/>
<path d="M472.469 213.177C472.469 214.414 471.479 215.527 470.118 215.527C468.881 215.527 467.767 214.537 467.767 213.177C467.767 211.939 468.757 210.826 470.118 210.826C471.479 210.826 472.469 211.816 472.469 213.177Z" fill="#777CD9"/>
<path d="M487.314 213.177C487.314 214.414 486.325 215.527 484.964 215.527C483.727 215.527 482.613 214.537 482.613 213.177C482.613 211.939 483.603 210.826 484.964 210.826C486.325 210.826 487.314 211.816 487.314 213.177Z" fill="#777CD9"/>
<path d="M502.284 213.177C502.284 214.414 501.294 215.527 499.933 215.527C498.696 215.527 497.583 214.537 497.583 213.177C497.583 211.939 498.573 210.826 499.933 210.826C501.294 210.826 502.284 211.816 502.284 213.177Z" fill="#777CD9"/>
<path d="M517.13 213.177C517.13 214.414 516.14 215.527 514.779 215.527C513.542 215.527 512.429 214.537 512.429 213.177C512.429 211.939 513.418 210.826 514.779 210.826C516.14 210.826 517.13 211.816 517.13 213.177Z" fill="#777CD9"/>
<path d="M532.099 213.177C532.099 214.414 531.11 215.527 529.749 215.527C528.512 215.527 527.398 214.537 527.398 213.177C527.398 211.939 528.388 210.826 529.749 210.826C531.11 210.826 532.099 211.816 532.099 213.177Z" fill="#777CD9"/>
<path d="M546.945 213.177C546.945 214.414 545.955 215.527 544.595 215.527C543.357 215.527 542.244 214.537 542.244 213.177C542.244 211.939 543.234 210.826 544.595 210.826C545.955 210.826 546.945 211.816 546.945 213.177Z" fill="#777CD9"/>
<path d="M433.251 227.775C434.549 227.775 435.601 226.723 435.601 225.424C435.601 224.126 434.549 223.074 433.251 223.074C431.953 223.074 430.9 224.126 430.9 225.424C430.9 226.723 431.953 227.775 433.251 227.775Z" fill="#777CD9"/>
<path d="M448.22 227.775C449.519 227.775 450.571 226.723 450.571 225.424C450.571 224.126 449.519 223.074 448.22 223.074C446.922 223.074 445.87 224.126 445.87 225.424C445.87 226.723 446.922 227.775 448.22 227.775Z" fill="#777CD9"/>
<path d="M463.066 227.775C464.364 227.775 465.417 226.723 465.417 225.424C465.417 224.126 464.364 223.074 463.066 223.074C461.768 223.074 460.716 224.126 460.716 225.424C460.716 226.723 461.768 227.775 463.066 227.775Z" fill="#777CD9"/>
<path d="M478.036 227.775C479.334 227.775 480.386 226.723 480.386 225.424C480.386 224.126 479.334 223.074 478.036 223.074C476.738 223.074 475.685 224.126 475.685 225.424C475.685 226.723 476.738 227.775 478.036 227.775Z" fill="#777CD9"/>
<path d="M492.882 227.775C494.18 227.775 495.232 226.723 495.232 225.424C495.232 224.126 494.18 223.074 492.882 223.074C491.583 223.074 490.531 224.126 490.531 225.424C490.531 226.723 491.583 227.775 492.882 227.775Z" fill="#777CD9"/>
<path d="M510.078 225.424C510.078 226.662 509.088 227.775 507.727 227.775C506.49 227.775 505.377 226.785 505.377 225.424C505.377 224.187 506.367 223.074 507.727 223.074C509.088 223.197 510.078 224.187 510.078 225.424Z" fill="#777CD9"/>
<path d="M522.697 227.775C523.995 227.775 525.048 226.723 525.048 225.424C525.048 224.126 523.995 223.074 522.697 223.074C521.399 223.074 520.346 224.126 520.346 225.424C520.346 226.723 521.399 227.775 522.697 227.775Z" fill="#777CD9"/>
<path d="M539.893 225.424C539.893 226.662 538.904 227.775 537.543 227.775C536.306 227.775 535.192 226.785 535.192 225.424C535.192 224.187 536.182 223.074 537.543 223.074C538.904 223.197 539.893 224.187 539.893 225.424Z" fill="#777CD9"/>
<path d="M442.653 237.796C442.653 239.033 441.663 240.146 440.303 240.146C439.065 240.146 437.952 239.157 437.952 237.796C437.952 236.435 438.942 235.445 440.303 235.445C441.663 235.569 442.653 236.559 442.653 237.796Z" fill="#777CD9"/>
<path d="M455.272 240.146C456.57 240.146 457.623 239.094 457.623 237.796C457.623 236.498 456.57 235.445 455.272 235.445C453.974 235.445 452.922 236.498 452.922 237.796C452.922 239.094 453.974 240.146 455.272 240.146Z" fill="#777CD9"/>
<path d="M472.469 237.796C472.469 239.033 471.479 240.146 470.118 240.146C468.881 240.146 467.767 239.157 467.767 237.796C467.767 236.435 468.757 235.445 470.118 235.445C471.479 235.569 472.469 236.559 472.469 237.796Z" fill="#777CD9"/>
<path d="M485.088 240.146C486.386 240.146 487.438 239.094 487.438 237.796C487.438 236.498 486.386 235.445 485.088 235.445C483.789 235.445 482.737 236.498 482.737 237.796C482.737 239.094 483.789 240.146 485.088 240.146Z" fill="#777CD9"/>
<path d="M499.933 240.146C501.232 240.146 502.284 239.094 502.284 237.796C502.284 236.498 501.232 235.445 499.933 235.445C498.635 235.445 497.583 236.498 497.583 237.796C497.583 239.094 498.635 240.146 499.933 240.146Z" fill="#777CD9"/>
<path d="M514.903 240.146C516.201 240.146 517.254 239.094 517.254 237.796C517.254 236.498 516.201 235.445 514.903 235.445C513.605 235.445 512.552 236.498 512.552 237.796C512.552 239.094 513.605 240.146 514.903 240.146Z" fill="#777CD9"/>
<path d="M529.749 240.146C531.047 240.146 532.099 239.094 532.099 237.796C532.099 236.498 531.047 235.445 529.749 235.445C528.451 235.445 527.398 236.498 527.398 237.796C527.398 239.094 528.451 240.146 529.749 240.146Z" fill="#777CD9"/>
<path d="M546.945 237.796C546.945 239.033 545.955 240.146 544.595 240.146C543.357 240.146 542.244 239.157 542.244 237.796C542.244 236.435 543.234 235.445 544.595 235.445C545.955 235.569 546.945 236.559 546.945 237.796Z" fill="#777CD9"/>
<path d="M435.601 250.167C435.601 251.405 434.612 252.518 433.251 252.518C432.014 252.518 430.9 251.528 430.9 250.167C430.9 248.93 431.89 247.817 433.251 247.817C434.612 247.941 435.601 248.93 435.601 250.167Z" fill="#777CD9"/>
<path d="M450.447 250.167C450.447 251.405 449.458 252.518 448.097 252.518C446.736 252.518 445.746 251.528 445.746 250.167C445.746 248.93 446.736 247.817 448.097 247.817C449.458 247.817 450.447 248.93 450.447 250.167Z" fill="#777CD9"/>
<path d="M465.417 250.167C465.417 251.405 464.427 252.518 463.066 252.518C461.829 252.518 460.716 251.528 460.716 250.167C460.716 248.93 461.705 247.817 463.066 247.817C464.427 247.941 465.417 248.93 465.417 250.167Z" fill="#777CD9"/>
<path d="M480.263 250.167C480.263 251.405 479.273 252.518 477.912 252.518C476.675 252.518 475.561 251.528 475.561 250.167C475.561 248.93 476.551 247.817 477.912 247.817C479.273 247.941 480.263 248.93 480.263 250.167Z" fill="#777CD9"/>
<path d="M495.232 250.167C495.232 251.405 494.242 252.518 492.882 252.518C491.644 252.518 490.531 251.528 490.531 250.167C490.531 248.93 491.521 247.817 492.882 247.817C494.242 247.941 495.232 248.93 495.232 250.167Z" fill="#777CD9"/>
<path d="M510.078 250.167C510.078 251.405 509.088 252.518 507.727 252.518C506.49 252.518 505.377 251.528 505.377 250.167C505.377 248.93 506.367 247.817 507.727 247.817C509.088 247.941 510.078 248.93 510.078 250.167Z" fill="#777CD9"/>
<path d="M525.048 250.167C525.048 251.405 524.058 252.518 522.697 252.518C521.336 252.518 520.346 251.528 520.346 250.167C520.346 248.93 521.336 247.817 522.697 247.817C524.058 247.817 525.048 248.93 525.048 250.167Z" fill="#777CD9"/>
<path d="M539.893 250.167C539.893 251.405 538.904 252.518 537.543 252.518C536.306 252.518 535.192 251.528 535.192 250.167C535.192 248.93 536.182 247.817 537.543 247.817C538.904 247.941 539.893 248.93 539.893 250.167Z" fill="#777CD9"/>
<path d="M442.653 262.539C442.653 263.776 441.663 264.89 440.303 264.89C439.065 264.89 437.952 263.9 437.952 262.539C437.952 261.302 438.942 260.188 440.303 260.188C441.663 260.312 442.653 261.302 442.653 262.539Z" fill="#777CD9"/>
<path d="M457.499 262.539C457.499 263.776 456.509 264.89 455.148 264.89C453.911 264.89 452.798 263.9 452.798 262.539C452.798 261.302 453.788 260.188 455.148 260.188C456.509 260.312 457.499 261.302 457.499 262.539Z" fill="#777CD9"/>
<path d="M472.469 262.539C472.469 263.776 471.479 264.89 470.118 264.89C468.881 264.89 467.767 263.9 467.767 262.539C467.767 261.302 468.757 260.188 470.118 260.188C471.479 260.312 472.469 261.302 472.469 262.539Z" fill="#777CD9"/>
<path d="M487.314 262.539C487.314 263.776 486.325 264.89 484.964 264.89C483.727 264.89 482.613 263.9 482.613 262.539C482.613 261.302 483.603 260.188 484.964 260.188C486.325 260.312 487.314 261.302 487.314 262.539Z" fill="#777CD9"/>
<path d="M502.284 262.539C502.284 263.776 501.294 264.89 499.933 264.89C498.696 264.89 497.583 263.9 497.583 262.539C497.583 261.302 498.573 260.188 499.933 260.188C501.294 260.312 502.284 261.302 502.284 262.539Z" fill="#777CD9"/>
<path d="M517.13 262.539C517.13 263.776 516.14 264.89 514.779 264.89C513.542 264.89 512.429 263.9 512.429 262.539C512.429 261.302 513.418 260.188 514.779 260.188C516.14 260.312 517.13 261.302 517.13 262.539Z" fill="#777CD9"/>
<path d="M532.099 262.539C532.099 263.776 531.11 264.89 529.749 264.89C528.512 264.89 527.398 263.9 527.398 262.539C527.398 261.302 528.388 260.188 529.749 260.188C531.11 260.312 532.099 261.302 532.099 262.539Z" fill="#777CD9"/>
<path d="M546.945 262.539C546.945 263.776 545.955 264.89 544.595 264.89C543.357 264.89 542.244 263.9 542.244 262.539C542.244 261.302 543.234 260.188 544.595 260.188C545.955 260.312 546.945 261.302 546.945 262.539Z" fill="#777CD9"/>
</svg>
